<mxfile host="app.diagrams.net" modified="2024-07-19T11:32:39.243Z" agent="Mozilla/5.0 (Macintosh; Intel Mac OS X 10_15_7) AppleWebKit/537.36 (KHTML, like Gecko) Chrome/126.0.0.0 Safari/537.36" etag="qQg6h3FoC0cTfuR4hky1" version="24.7.1" type="github">
  <diagram name="第 1 页" id="-ke-t4J4-Tl50YWqSAyo">
    <mxGraphModel dx="2233" dy="1455" grid="1" gridSize="10" guides="1" tooltips="1" connect="1" arrows="1" fold="1" page="1" pageScale="1" pageWidth="827" pageHeight="1169" math="0" shadow="0">
      <root>
        <mxCell id="0" />
        <mxCell id="1" parent="0" />
        <mxCell id="VTEwgJY0jRX-lEksNTBg-1" value="" style="rounded=0;whiteSpace=wrap;html=1;strokeColor=none;fillColor=none;fontColor=#ffffff;fontStyle=0;fontSize=32;" parent="1" vertex="1">
          <mxGeometry x="170" y="1239" width="950" height="101" as="geometry" />
        </mxCell>
        <mxCell id="VTEwgJY0jRX-lEksNTBg-2" value="" style="endArrow=classic;html=1;rounded=0;strokeWidth=4;fillColor=#bac8d3;strokeColor=#999999;fontColor=#000000;fontStyle=0;labelBackgroundColor=none;labelBorderColor=none;dashed=1;exitX=1;exitY=0.5;exitDx=0;exitDy=0;entryX=0;entryY=0.5;entryDx=0;entryDy=0;fontSize=32;" parent="1" source="VTEwgJY0jRX-lEksNTBg-3" target="VTEwgJY0jRX-lEksNTBg-18" edge="1">
          <mxGeometry width="50" height="50" relative="1" as="geometry">
            <mxPoint x="340" y="620" as="sourcePoint" />
            <mxPoint x="600" y="210" as="targetPoint" />
            <Array as="points">
              <mxPoint x="490" y="380" />
              <mxPoint x="490" y="290" />
            </Array>
          </mxGeometry>
        </mxCell>
        <UserObject label="&lt;font style=&quot;font-size: 32px;&quot;&gt;弹屏页&lt;/font&gt;" link="http://bat.fx.ctripcorp.com/d/wI1b09LVk/da-pan-ctriplie-biao-ye?orgId=0" linkTarget="_blank" id="VTEwgJY0jRX-lEksNTBg-3">
          <mxCell style="rounded=1;whiteSpace=wrap;html=1;fillColor=#bac8d3;strokeColor=#23445d;strokeWidth=3;fontColor=#000000;fontStyle=0;labelBackgroundColor=none;labelBorderColor=none;fontSize=32;aspect=fixed;" parent="1" vertex="1">
            <mxGeometry x="160" y="330" width="208.33" height="100" as="geometry" />
          </mxCell>
        </UserObject>
        <UserObject label="&lt;span style=&quot;font-size: 32px;&quot;&gt;SKU&lt;/span&gt;" link="http://bat.fx.ctripcorp.com/d/NJ8tkjYVk/da-pan-ctrip-sku?orgId=0" linkTarget="_blank" id="VTEwgJY0jRX-lEksNTBg-4">
          <mxCell style="rounded=1;whiteSpace=wrap;html=1;fillColor=#bac8d3;strokeColor=#23445d;strokeWidth=3;fontColor=#000000;fontStyle=0;labelBackgroundColor=none;labelBorderColor=none;fontSize=32;aspect=fixed;" parent="1" vertex="1">
            <mxGeometry x="161.67" y="500" width="208.33" height="100" as="geometry" />
          </mxCell>
        </UserObject>
        <UserObject label="&lt;span style=&quot;font-size: 32px;&quot;&gt;购买须知&lt;/span&gt;" link="http://bat.fx.ctripcorp.com/d/not6MCLVz/da-pan-ctripgou-mai-xu-zhi?orgId=0" linkTarget="_blank" id="VTEwgJY0jRX-lEksNTBg-5">
          <mxCell style="rounded=1;whiteSpace=wrap;html=1;fillColor=#bac8d3;strokeColor=#23445d;strokeWidth=3;fontColor=#000000;fontStyle=0;labelBackgroundColor=none;labelBorderColor=none;fontSize=32;aspect=fixed;" parent="1" vertex="1">
            <mxGeometry x="160" y="720" width="208.33" height="100" as="geometry" />
          </mxCell>
        </UserObject>
        <UserObject label="&lt;span style=&quot;font-size: 32px;&quot;&gt;票种详情&lt;/span&gt;" link="http://bat.fx.ctripcorp.com/d/mRiL7jLVk/da-pan-ctrippiao-chong-xiang-qing-ye?orgId=0" linkTarget="_blank" id="VTEwgJY0jRX-lEksNTBg-6">
          <mxCell style="rounded=1;whiteSpace=wrap;html=1;fillColor=#bac8d3;strokeColor=#23445d;strokeWidth=3;fontColor=#000000;fontStyle=0;labelBackgroundColor=none;labelBorderColor=none;fontSize=32;aspect=fixed;" parent="1" vertex="1">
            <mxGeometry x="160" y="930" width="208.33" height="100" as="geometry" />
          </mxCell>
        </UserObject>
        <UserObject label="&lt;span style=&quot;font-size: 32px;&quot;&gt;资源聚合&lt;/span&gt;" link="http://bat.fx.ctripcorp.com/d/ek34VjL4k/da-pan-ctripzi-yuan-ju-he?orgId=0" linkTarget="_blank" id="VTEwgJY0jRX-lEksNTBg-7">
          <mxCell style="rounded=1;whiteSpace=wrap;html=1;fillColor=#bac8d3;strokeColor=#23445d;strokeWidth=3;fontColor=#000000;fontStyle=0;labelBackgroundColor=none;labelBorderColor=none;fontSize=32;aspect=fixed;" parent="1" vertex="1">
            <mxGeometry x="160" y="1120" width="208.33" height="100" as="geometry" />
          </mxCell>
        </UserObject>
        <UserObject label="&lt;font style=&quot;font-size: 32px;&quot;&gt;景点详情页&lt;/font&gt;" link="http://bat.fx.ctripcorp.com/d/64YUH9Y4k/da-pan-ctripjing-dian-xiang-qing-ye?orgId=0" linkTarget="_blank" id="VTEwgJY0jRX-lEksNTBg-8">
          <mxCell style="rounded=1;whiteSpace=wrap;html=1;fillColor=#bac8d3;strokeColor=#23445d;strokeWidth=3;fontColor=#000000;fontStyle=0;labelBackgroundColor=none;labelBorderColor=none;fontSize=32;aspect=fixed;" parent="1" vertex="1">
            <mxGeometry x="601.67" y="500" width="208.33" height="100" as="geometry" />
          </mxCell>
        </UserObject>
        <UserObject label="&lt;font style=&quot;font-size: 32px;&quot;&gt;资源详情页&lt;/font&gt;" link="http://bat.fx.ctripcorp.com/d/htm7GCL4z/da-pan-ctripzi-yuan-xiang-qing-ye?orgId=0" linkTarget="_blank" id="VTEwgJY0jRX-lEksNTBg-9">
          <mxCell style="rounded=1;whiteSpace=wrap;html=1;fillColor=#bac8d3;strokeColor=#23445d;strokeWidth=3;fontColor=#000000;fontStyle=0;labelBackgroundColor=none;labelBorderColor=none;fontSize=32;aspect=fixed;" parent="1" vertex="1">
            <mxGeometry x="601.67" y="730" width="208.33" height="100" as="geometry" />
          </mxCell>
        </UserObject>
        <UserObject label="&lt;font style=&quot;font-size: 32px;&quot;&gt;web站点监控&lt;/font&gt;" link="http://bat.fx.ctripcorp.com/d/BrAGyhE4z/da-pan-ctripzhan-dian-jian-kong?orgId=0&amp;query=" linkTarget="_blank" id="VTEwgJY0jRX-lEksNTBg-10">
          <mxCell style="rounded=1;whiteSpace=wrap;html=1;fillColor=#bac8d3;strokeColor=#23445d;strokeWidth=3;fontColor=#000000;fontStyle=0;labelBackgroundColor=none;labelBorderColor=none;fontSize=32;" parent="1" vertex="1">
            <mxGeometry x="740" y="1054" width="650" height="114.6" as="geometry" />
          </mxCell>
        </UserObject>
        <mxCell id="VTEwgJY0jRX-lEksNTBg-11" value="" style="endArrow=classic;html=1;rounded=0;strokeWidth=4;fillColor=#bac8d3;strokeColor=#999999;fontColor=#000000;fontStyle=0;labelBackgroundColor=none;labelBorderColor=none;dashed=1;exitX=0;exitY=0.5;exitDx=0;exitDy=0;entryX=1;entryY=0.5;entryDx=0;entryDy=0;fontSize=32;" parent="1" source="VTEwgJY0jRX-lEksNTBg-8" target="VTEwgJY0jRX-lEksNTBg-4" edge="1">
          <mxGeometry width="50" height="50" relative="1" as="geometry">
            <mxPoint x="470" y="590" as="sourcePoint" />
            <mxPoint x="702" y="590" as="targetPoint" />
            <Array as="points" />
          </mxGeometry>
        </mxCell>
        <mxCell id="VTEwgJY0jRX-lEksNTBg-12" value="" style="endArrow=classic;html=1;rounded=0;strokeWidth=4;fillColor=#bac8d3;strokeColor=#999999;fontColor=#000000;fontStyle=0;labelBackgroundColor=none;labelBorderColor=none;dashed=1;entryX=1;entryY=0.5;entryDx=0;entryDy=0;fontSize=32;" parent="1" target="VTEwgJY0jRX-lEksNTBg-7" edge="1">
          <mxGeometry width="50" height="50" relative="1" as="geometry">
            <mxPoint x="500" y="550" as="sourcePoint" />
            <mxPoint x="490" y="970" as="targetPoint" />
            <Array as="points">
              <mxPoint x="500" y="1170" />
            </Array>
          </mxGeometry>
        </mxCell>
        <mxCell id="VTEwgJY0jRX-lEksNTBg-13" value="" style="endArrow=classic;html=1;rounded=0;strokeWidth=4;fillColor=#bac8d3;strokeColor=#999999;fontColor=#000000;fontStyle=0;labelBackgroundColor=none;labelBorderColor=none;dashed=1;entryX=1;entryY=0.5;entryDx=0;entryDy=0;fontSize=32;" parent="1" target="VTEwgJY0jRX-lEksNTBg-5" edge="1">
          <mxGeometry width="50" height="50" relative="1" as="geometry">
            <mxPoint x="490" y="770" as="sourcePoint" />
            <mxPoint x="158" y="830" as="targetPoint" />
            <Array as="points" />
          </mxGeometry>
        </mxCell>
        <mxCell id="VTEwgJY0jRX-lEksNTBg-14" value="" style="endArrow=classic;html=1;rounded=0;strokeWidth=4;fillColor=#bac8d3;strokeColor=#999999;fontColor=#000000;fontStyle=0;labelBackgroundColor=none;labelBorderColor=none;dashed=1;entryX=1;entryY=0.5;entryDx=0;entryDy=0;fontSize=32;" parent="1" edge="1">
          <mxGeometry width="50" height="50" relative="1" as="geometry">
            <mxPoint x="492" y="970" as="sourcePoint" />
            <mxPoint x="370" y="970" as="targetPoint" />
            <Array as="points" />
          </mxGeometry>
        </mxCell>
        <mxCell id="VTEwgJY0jRX-lEksNTBg-15" value="" style="endArrow=classic;html=1;strokeWidth=4;exitX=1;exitY=0.5;exitDx=0;exitDy=0;fillColor=#bac8d3;strokeColor=#999999;fontColor=#000000;fontStyle=0;labelBackgroundColor=none;labelBorderColor=none;rounded=0;dashed=1;fontSize=32;" parent="1" edge="1">
          <mxGeometry width="50" height="50" relative="1" as="geometry">
            <mxPoint x="806.33" y="549" as="sourcePoint" />
            <mxPoint x="1056" y="549" as="targetPoint" />
            <Array as="points" />
          </mxGeometry>
        </mxCell>
        <UserObject label="&lt;font style=&quot;font-size: 32px;&quot;&gt;门票填写页&lt;/font&gt;" link="http://bat.fx.ctripcorp.com/d/pBtHP9Y4z/da-pan-ctripmen-piao-tian-xie-ye?orgId=0" linkTarget="_blank" id="VTEwgJY0jRX-lEksNTBg-16">
          <mxCell style="rounded=1;whiteSpace=wrap;html=1;fillColor=#bac8d3;strokeColor=#23445d;strokeWidth=3;fontColor=#000000;fontStyle=0;labelBackgroundColor=none;labelBorderColor=none;fontSize=32;aspect=fixed;" parent="1" vertex="1">
            <mxGeometry x="1060" y="500" width="208.33" height="100" as="geometry" />
          </mxCell>
        </UserObject>
        <mxCell id="VTEwgJY0jRX-lEksNTBg-17" value="" style="endArrow=classic;html=1;strokeWidth=4;exitX=1;exitY=0.5;exitDx=0;exitDy=0;fillColor=#bac8d3;strokeColor=#999999;fontColor=#000000;fontStyle=0;labelBackgroundColor=none;labelBorderColor=none;rounded=0;dashed=1;entryX=0;entryY=0.5;entryDx=0;entryDy=0;fontSize=32;" parent="1" source="VTEwgJY0jRX-lEksNTBg-18" target="VTEwgJY0jRX-lEksNTBg-19" edge="1">
          <mxGeometry width="50" height="50" relative="1" as="geometry">
            <mxPoint x="760" y="200" as="sourcePoint" />
            <mxPoint x="1070" y="210" as="targetPoint" />
            <Array as="points" />
          </mxGeometry>
        </mxCell>
        <UserObject label="&lt;font style=&quot;font-size: 32px;&quot;&gt;活动详情页&lt;/font&gt;" link="http://bat.fx.ctripcorp.com/d/HNnQR_L4k/da-pan-ctriphuo-dong-xiang-qing-ye?orgId=0" linkTarget="_blank" id="VTEwgJY0jRX-lEksNTBg-18">
          <mxCell style="rounded=1;whiteSpace=wrap;html=1;fillColor=#bac8d3;strokeColor=#23445d;strokeWidth=3;fontColor=#000000;fontStyle=0;labelBackgroundColor=none;labelBorderColor=none;fontSize=32;aspect=fixed;" parent="1" vertex="1">
            <mxGeometry x="601.67" y="240" width="208.33" height="100" as="geometry" />
          </mxCell>
        </UserObject>
        <UserObject label="&lt;font style=&quot;font-size: 32px;&quot;&gt;活动填写页&lt;/font&gt;" link="http://bat.fx.ctripcorp.com/d/ecHlY9Y4z/da-pan-ctriphuo-dong-tian-xie-ye?orgId=0" linkTarget="_blank" id="VTEwgJY0jRX-lEksNTBg-19">
          <mxCell style="rounded=1;whiteSpace=wrap;html=1;fillColor=#bac8d3;strokeColor=#23445d;strokeWidth=3;fontColor=#000000;fontStyle=0;labelBackgroundColor=none;labelBorderColor=none;fontSize=32;aspect=fixed;" parent="1" vertex="1">
            <mxGeometry x="1050" y="240" width="208.33" height="100" as="geometry" />
          </mxCell>
        </UserObject>
        <UserObject label="列表页" link="http://bat.fx.ctripcorp.com/d/SIBf-MpIk/da-pan-ctripliu-liang-chong-zhi?orgId=0&amp;from=now-24h&amp;to=now" linkTarget="_blank" id="VTEwgJY0jRX-lEksNTBg-20">
          <mxCell style="rounded=1;whiteSpace=wrap;html=1;fillColor=#bac8d3;strokeColor=#23445d;strokeWidth=3;fontColor=#000000;fontStyle=0;labelBackgroundColor=none;labelBorderColor=none;fontSize=32;aspect=fixed;" parent="1" vertex="1">
            <mxGeometry x="160" y="140" width="208.33" height="100" as="geometry" />
          </mxCell>
        </UserObject>
        <mxCell id="VTEwgJY0jRX-lEksNTBg-21" value="" style="endArrow=none;html=1;strokeWidth=4;exitX=1;exitY=0.5;exitDx=0;exitDy=0;fillColor=#bac8d3;strokeColor=#999999;fontColor=#000000;fontStyle=0;labelBackgroundColor=none;labelBorderColor=none;rounded=0;dashed=1;fontSize=32;endFill=0;" parent="1" source="VTEwgJY0jRX-lEksNTBg-20" edge="1">
          <mxGeometry width="50" height="50" relative="1" as="geometry">
            <mxPoint x="430" y="190" as="sourcePoint" />
            <mxPoint x="490" y="290" as="targetPoint" />
            <Array as="points">
              <mxPoint x="490" y="190" />
            </Array>
          </mxGeometry>
        </mxCell>
        <UserObject label="&lt;font style=&quot;font-size: 24px;&quot;&gt;全量报错查看地址&lt;/font&gt;" link="http://esapm.site.ctripcorp.com/#/dashboard/elasticsearch/vacation_fluency_block_offline_ttd2_all.ck" linkTarget="_blank" id="VTEwgJY0jRX-lEksNTBg-22">
          <mxCell style="rounded=1;whiteSpace=wrap;html=1;fillColor=#647687;strokeColor=#314354;strokeWidth=3;fontColor=#ffffff;fontStyle=4;labelBackgroundColor=none;labelBorderColor=none;fontSize=24;" parent="1" vertex="1">
            <mxGeometry x="160" y="40" width="240" height="50" as="geometry" />
          </mxCell>
        </UserObject>
        <UserObject label="&lt;font style=&quot;font-size: 24px;&quot;&gt;增量报错查看地址&lt;/font&gt;" link="http://artnova.ops.ctripcorp.com/#/dashboard/839b24e3-9474-4c10-9f4a-58f79213c247" linkTarget="_blank" id="VTEwgJY0jRX-lEksNTBg-23">
          <mxCell style="rounded=1;whiteSpace=wrap;html=1;fillColor=#647687;strokeColor=#314354;strokeWidth=3;fontColor=#ffffff;fontStyle=4;labelBackgroundColor=none;labelBorderColor=none;fontSize=24;" parent="1" vertex="1">
            <mxGeometry x="601.67" y="40" width="228.33" height="50" as="geometry" />
          </mxCell>
        </UserObject>
        <UserObject label="&lt;font style=&quot;font-size: 24px;&quot;&gt;业务系统异常地址&lt;/font&gt;" link="http://esapm.site.ctripcorp.com/#/dashboard/elasticsearch/vacation_tnt_fluency_block_app_all.ck" linkTarget="_blank" id="VTEwgJY0jRX-lEksNTBg-24">
          <mxCell style="rounded=1;whiteSpace=wrap;html=1;fillColor=#647687;strokeColor=#314354;strokeWidth=3;fontColor=#ffffff;fontStyle=4;labelBackgroundColor=none;labelBorderColor=none;fontSize=24;" parent="1" vertex="1">
            <mxGeometry x="1044.16" y="45" width="240" height="50" as="geometry" />
          </mxCell>
        </UserObject>
        <UserObject label="PV&amp;amp;UV" link="http://bat.fx.ctripcorp.com/d/7p17vDMSz/miao-sha-huo-dong-ye-mian-pvanduv?orgId=0" linkTarget="_blank" id="VTEwgJY0jRX-lEksNTBg-25">
          <mxCell style="rounded=1;whiteSpace=wrap;html=1;fillColor=#647687;strokeColor=#314354;strokeWidth=3;fontColor=#ffffff;fontStyle=4;labelBackgroundColor=none;labelBorderColor=none;fontSize=24;" parent="1" vertex="1">
            <mxGeometry x="1400" y="45" width="150" height="50" as="geometry" />
          </mxCell>
        </UserObject>
        <mxCell id="VTEwgJY0jRX-lEksNTBg-26" value="" style="endArrow=classic;html=1;strokeWidth=4;exitX=1;exitY=0.5;exitDx=0;exitDy=0;fillColor=#bac8d3;strokeColor=#999999;fontColor=#000000;fontStyle=0;labelBackgroundColor=none;labelBorderColor=none;rounded=0;dashed=1;entryX=0.5;entryY=1;entryDx=0;entryDy=0;fontSize=32;" parent="1" target="VTEwgJY0jRX-lEksNTBg-16" edge="1">
          <mxGeometry width="50" height="50" relative="1" as="geometry">
            <mxPoint x="820" y="769.33" as="sourcePoint" />
            <mxPoint x="1060" y="769.33" as="targetPoint" />
            <Array as="points">
              <mxPoint x="1164" y="769" />
            </Array>
          </mxGeometry>
        </mxCell>
        <mxCell id="VTEwgJY0jRX-lEksNTBg-27" value="" style="endArrow=classic;html=1;strokeWidth=4;exitX=0.5;exitY=1;exitDx=0;exitDy=0;fillColor=#bac8d3;strokeColor=#999999;fontColor=#000000;fontStyle=0;labelBackgroundColor=none;labelBorderColor=none;rounded=0;dashed=1;entryX=0.5;entryY=0;entryDx=0;entryDy=0;fontSize=32;" parent="1" source="VTEwgJY0jRX-lEksNTBg-3" target="VTEwgJY0jRX-lEksNTBg-8" edge="1">
          <mxGeometry width="50" height="50" relative="1" as="geometry">
            <mxPoint x="430" y="450" as="sourcePoint" />
            <mxPoint x="670" y="450" as="targetPoint" />
            <Array as="points">
              <mxPoint x="264" y="460" />
              <mxPoint x="706" y="460" />
            </Array>
          </mxGeometry>
        </mxCell>
      </root>
    </mxGraphModel>
  </diagram>
</mxfile>
